<svg xmlns="http://www.w3.org/2000/svg" xmlns:xlink="http://www.w3.org/1999/xlink" width="500" zoomAndPan="magnify" viewBox="0 0 375 374.999991" height="500" preserveAspectRatio="xMidYMid meet" version="1.0"><defs><clipPath id="233820a2e4"><path d="M 10.105469 37.5 L 364.855469 37.5 L 364.855469 340.5 L 10.105469 340.5 Z M 10.105469 37.5 " clip-rule="nonzero"/></clipPath></defs><g clip-path="url(#233820a2e4)"><path fill="#41ce8c" d="M 256.914062 306.59375 L 290.703125 340.382812 L 364.890625 340.382812 L 291.410156 266.898438 C 305.09375 244.121094 312.972656 217.457031 312.972656 188.972656 C 312.972656 105.339844 245.199219 37.511719 161.566406 37.511719 C 153.484375 37.511719 145.605469 38.167969 137.878906 39.332031 L 192.929688 94.429688 C 232.574219 107.5625 261.15625 144.933594 261.15625 188.972656 C 261.15625 203.011719 258.230469 216.394531 252.976562 228.515625 L 232.320312 207.859375 L 158.183594 207.859375 L 219.945312 269.625 Z M 161.566406 340.382812 L 227.421875 340.382812 L 216.96875 329.925781 L 174.695312 287.707031 C 170.402344 288.261719 166.007812 288.566406 161.566406 288.566406 C 106.515625 288.566406 61.921875 243.96875 61.921875 188.972656 C 61.921875 148.015625 86.617188 112.863281 121.921875 97.5625 L 83.539062 59.128906 C 39.550781 85.644531 10.105469 133.875 10.105469 188.972656 C 10.105469 272.605469 77.933594 340.382812 161.566406 340.382812 Z M 161.566406 340.382812 " fill-opacity="1" fill-rule="evenodd"/></g></svg>